<svg width="70" height="57" fill="none" xmlns="http://www.w3.org/2000/svg"><g clip-path="url(#clip0)"><path d="M2.257 48.231a1.106 1.106 0 11-2.213 0 1.106 1.106 0 012.213 0zm38.773-18.13a8.77 8.77 0 01-5.308 1.772 2.752 2.752 0 01-1.66-.555 2.752 2.752 0 01-1.66.555 8.758 8.758 0 01-5.471-1.897 1.107 1.107 0 011.37-1.739 6.565 6.565 0 004.101 1.423.554.554 0 00.554-.554v-1.8a4.435 4.435 0 01-3.32-4.287c0-1.22.992-2.213 2.213-2.213h4.427c1.22 0 2.213.993 2.213 2.213a4.435 4.435 0 01-3.32 4.287v1.8c0 .305.248.554.553.554a6.574 6.574 0 003.978-1.328 1.106 1.106 0 111.33 1.77zm-6.968-4.868c1.22 0 2.214-.993 2.214-2.214h-4.427c0 1.22.993 2.214 2.213 2.214zm-3.819-8.42l-1.636 2.835c-1.581 2.604-4.58 2.936-6.61 1.771-2.012-1.153-2.7-3.736-1.54-5.744l1.526-2.643a4.955 4.955 0 016.761-1.812 4.1 4.1 0 011.5 5.594zm-3.553 1.729l.678-1.175h-.86c-1.473 0-1.473-2.214 0-2.214h2.03c.161-.774-.172-1.611-.9-2.016-1.34-.745-2.976-.31-3.738 1.002l-1.526 2.642a1.999 1.999 0 00.729 2.722c1.513.885 3.103-.036 3.587-.962zm19.438 2.877c-2.18 1.24-5.111.736-6.61-1.77l-1.637-2.835a4.1 4.1 0 011.499-5.594 4.955 4.955 0 016.762 1.812l1.525 2.643c1.16 2.008.477 4.599-1.539 5.744zm-.377-4.638l-1.526-2.642a2.74 2.74 0 00-3.738-1.002 1.884 1.884 0 00-.9 2.016h2.029c1.474 0 1.474 2.214 0 2.214h-.86l.678 1.174c.553 1.001 2.092 1.805 3.587.962.957-.54 1.279-1.77.73-2.722zm7.07-1.05c2.045 4.283 1.866 9.2-.54 13.369a14.754 14.754 0 01-1.624 2.281 43.773 43.773 0 01.382 21.411 4.417 4.417 0 01-4.313 3.428h-2.431a24 24 0 01-10.456-2.395c-.838 1.086-2.435 2.395-4.819 2.395H8.23c-2.153 0-4.456-.88-6.093-2.72a1.115 1.115 0 01.085-1.564c.478-.439 1.188-.333 1.563.086a5.976 5.976 0 004.447 1.985h2.26c-1.97-2.624-2.73-6.047-1.891-9.29 1.443-5.58 6.01-7.857 9.307-8.33a43.367 43.367 0 01-3.431-10.126c-6.37 3.673-10.673 9.863-11.894 17.191a1.108 1.108 0 01-1.274.911A1.103 1.103 0 01.4 43.09c1.836-10.782 9.016-16.633 13.65-19.127a14.217 14.217 0 011.255-8.23 8.508 8.508 0 01-3.356-6.752c0-4.674 3.803-8.477 8.477-8.477 1.882 0 3.684.618 5.16 1.754C28.1.797 31 0 34.062 0c3.062 0 5.963.796 8.478 2.257A8.435 8.435 0 0147.7.503c4.674 0 8.476 3.803 8.476 8.477 0 2.66-1.263 5.16-3.355 6.752zm-36.435-1.968l3.08-5.336a16.968 16.968 0 014.157-4.83 6.231 6.231 0 00-3.198-.88 6.27 6.27 0 00-6.263 6.263c0 1.854.831 3.603 2.224 4.783zm15.47 38.984a23.966 23.966 0 01-3.342-2.442 43.725 43.725 0 01-9.501-11.783c-3.899.142-7.317 2.89-8.263 6.724a8.893 8.893 0 002.74 8.761h15.53a3.8 3.8 0 002.836-1.26zm12.439 1.26c.932 0 1.278-.958 1.011-1.558-2.718-6.132-6.659-11.588-11.646-16.15h-5.345c-3.663 0-7.056-1.333-9.652-3.694A41.552 41.552 0 0029.97 48.638a21.773 21.773 0 0014.325 5.37zm4.53-20.855C46.32 35.17 43.18 36.3 39.81 36.3h-2.95a51.188 51.188 0 013.196 3.511c.028-.156.057-.312.089-.467a1.107 1.107 0 012.17.438 21.88 21.88 0 00-.352 2.482 50.797 50.797 0 015.365 9.285c.333.747.374 1.573.139 2.331a2.22 2.22 0 001.417-1.593 41.543 41.543 0 00-.06-19.136zm1.538-17.345l-3.622-6.274c-2.646-4.583-7.386-7.32-12.679-7.32-5.292 0-10.032 2.737-12.678 7.32l-3.623 6.274c-2.202 3.816-2.202 8.371 0 12.187 2.203 3.815 6.148 6.092 10.554 6.092H39.81c4.405 0 8.35-2.277 10.553-6.093 2.203-3.815 2.203-8.37 0-12.186zm3.6-6.827A6.27 6.27 0 0047.7 2.717a6.231 6.231 0 00-3.197.88 16.967 16.967 0 014.156 4.83l3.08 5.336a6.286 6.286 0 002.225-4.783z" fill="url(#paint0_linear)"/><g clip-path="url(#clip1)"><path d="M60.656 35.635a.268.268 0 00.348-.254s.128-2.31.188-2.948c.05-.536.395-3.256.395-3.256a.267.267 0 00-.296-.312s-.689.051-1.027.02c-.34-.032-1.012-.212-1.012-.212a.267.267 0 00-.349.252s-.164 2.704-.213 3.23c-.061.648-.367 2.975-.367 2.975-.025.185.108.324.294.309 0 0 .637-.052.958-.024.358.031 1.08.22 1.08.22z" fill="url(#paint1_linear)"/><path d="M59.925 43.424a.268.268 0 00.348-.254s.128-2.31.188-2.948c.05-.536.395-3.256.395-3.256a.267.267 0 00-.296-.312s-.689.051-1.027.02c-.34-.032-1.012-.212-1.012-.212a.267.267 0 00-.349.252s-.164 2.704-.213 3.23c-.06.649-.367 2.975-.367 2.975a.265.265 0 00.294.31s.637-.053.958-.025c.358.031 1.08.22 1.08.22z" fill="url(#paint2_linear)"/><path d="M59.194 51.215a.268.268 0 00.348-.254s.128-2.31.188-2.947c.05-.537.396-3.257.396-3.257a.267.267 0 00-.297-.312s-.689.051-1.027.02c-.34-.032-1.011-.212-1.011-.212a.267.267 0 00-.35.252s-.163 2.704-.213 3.23c-.06.648-.367 2.975-.367 2.975a.265.265 0 00.294.31s.637-.053.958-.025c.358.031 1.081.22 1.081.22z" fill="url(#paint3_linear)"/><path d="M64.145 39.006c-1.095.993-2.472 1.37-2.619 1.243-.148-.13.254-1.36 1.35-2.352 1.095-.993 2.47-1.373 2.619-1.243.159.139-.254 1.36-1.35 2.352z" fill="url(#paint4_linear)"/><path d="M64.397 41.765c-1.17.064-2.16-.493-2.173-.675-.013-.186.895-.842 2.065-.905 1.171-.064 2.161.49 2.174.675.013.199-.895.842-2.066.905z" fill="url(#paint5_linear)"/><path d="M62.089 43.381c-.52-.825-.534-1.696-.412-1.757.123-.061.948.407 1.468 1.232.519.825.535 1.695.412 1.756-.133.066-.949-.406-1.468-1.23z" fill="url(#paint6_linear)"/><path d="M51.491 42.442a.268.268 0 00.192-.385s-.845-1.87-1.062-2.405c-.184-.45-1.028-2.737-1.028-2.737a.267.267 0 00-.406-.14s-.501.31-.785.426c-.285.116-.864.245-.864.245a.267.267 0 00-.194.384s.981 2.2 1.16 2.64c.221.544.933 2.5.933 2.5a.263.263 0 00.404.139s.459-.289.727-.4c.3-.124.923-.267.923-.267z" fill="url(#paint7_linear)"/><path d="M54.148 48.976a.267.267 0 00.191-.386s-.844-1.87-1.062-2.405c-.183-.45-1.027-2.737-1.027-2.737a.267.267 0 00-.407-.14s-.5.31-.785.426c-.285.116-.863.245-.863.245a.267.267 0 00-.194.384s.98 2.2 1.16 2.641c.221.544.933 2.5.933 2.5a.263.263 0 00.404.138s.459-.289.727-.4c.3-.124.923-.266.923-.266z" fill="url(#paint8_linear)"/><path d="M56.805 55.507a.267.267 0 00.191-.385s-.844-1.87-1.061-2.405c-.184-.45-1.028-2.738-1.028-2.738a.267.267 0 00-.406-.14s-.501.31-.785.426c-.285.116-.864.245-.864.245a.267.267 0 00-.194.384s.981 2.2 1.16 2.641c.221.544.933 2.5.933 2.5a.263.263 0 00.404.138s.459-.288.727-.4c.3-.123.923-.266.923-.266z" fill="url(#paint9_linear)"/><path d="M47.24 45.65c.92-.565 1.988-.618 2.084-.497.099.123-.325.986-1.245 1.551-.92.566-1.987.621-2.085.497-.106-.132.325-.985 1.245-1.55z" fill="url(#paint10_linear)"/><path d="M48.005 43.108c.77.51 1.055 1.319.954 1.437-.103.12-1.065.1-1.835-.41s-1.057-1.317-.954-1.438c.11-.128 1.065-.1 1.835.41z" fill="url(#paint11_linear)"/></g></g><defs><linearGradient id="paint0_linear" x1="-10.437" y1="0" x2="66.632" y2="23.358" gradientUnits="userSpaceOnUse"><stop stop-color="#4BD8B5"/><stop offset="1" stop-color="#49D6DF"/></linearGradient><linearGradient id="paint1_linear" x1="57.709" y1="28.662" x2="62.514" y2="29.345" gradientUnits="userSpaceOnUse"><stop stop-color="#4BD8B5"/><stop offset="1" stop-color="#49D6DF"/></linearGradient><linearGradient id="paint2_linear" x1="56.978" y1="36.451" x2="61.783" y2="37.134" gradientUnits="userSpaceOnUse"><stop stop-color="#4BD8B5"/><stop offset="1" stop-color="#49D6DF"/></linearGradient><linearGradient id="paint3_linear" x1="56.247" y1="44.242" x2="61.053" y2="44.925" gradientUnits="userSpaceOnUse"><stop stop-color="#4BD8B5"/><stop offset="1" stop-color="#49D6DF"/></linearGradient><linearGradient id="paint4_linear" x1="60.744" y1="36.629" x2="66.174" y2="38.452" gradientUnits="userSpaceOnUse"><stop stop-color="#4BD8B5"/><stop offset="1" stop-color="#49D6DF"/></linearGradient><linearGradient id="paint5_linear" x1="61.432" y1="40.18" x2="65.273" y2="43.287" gradientUnits="userSpaceOnUse"><stop stop-color="#4BD8B5"/><stop offset="1" stop-color="#49D6DF"/></linearGradient><linearGradient id="paint6_linear" x1="61.239" y1="41.619" x2="64.128" y2="42.206" gradientUnits="userSpaceOnUse"><stop stop-color="#4BD8B5"/><stop offset="1" stop-color="#49D6DF"/></linearGradient><linearGradient id="paint7_linear" x1="46.496" y1="36.728" x2="52.812" y2="38.039" gradientUnits="userSpaceOnUse"><stop stop-color="#4BD8B5"/><stop offset="1" stop-color="#49D6DF"/></linearGradient><linearGradient id="paint8_linear" x1="49.153" y1="43.262" x2="55.468" y2="44.572" gradientUnits="userSpaceOnUse"><stop stop-color="#4BD8B5"/><stop offset="1" stop-color="#49D6DF"/></linearGradient><linearGradient id="paint9_linear" x1="51.81" y1="49.793" x2="58.125" y2="51.103" gradientUnits="userSpaceOnUse"><stop stop-color="#4BD8B5"/><stop offset="1" stop-color="#49D6DF"/></linearGradient><linearGradient id="paint10_linear" x1="45.351" y1="45.1" x2="49.467" y2="47.047" gradientUnits="userSpaceOnUse"><stop stop-color="#4BD8B5"/><stop offset="1" stop-color="#49D6DF"/></linearGradient><linearGradient id="paint11_linear" x1="45.622" y1="42.633" x2="49.187" y2="44.184" gradientUnits="userSpaceOnUse"><stop stop-color="#4BD8B5"/><stop offset="1" stop-color="#49D6DF"/></linearGradient><clipPath id="clip0"><path fill="#fff" d="M0 0h70v56.221H0z"/></clipPath><clipPath id="clip1"><path fill="#fff" transform="translate(42.44 28.662)" d="M0 0h27.559v27.559H0z"/></clipPath></defs></svg>