<svg width="65" height="53" fill="none" xmlns="http://www.w3.org/2000/svg"><path d="M61.748 16.028H55.51l-1.75-13.21A3.276 3.276 0 0050.102.026L2.823 6.292A3.252 3.252 0 00.669 7.547 3.22 3.22 0 00.03 9.95l3.99 30.086a3.252 3.252 0 003.645 2.802l3.132-.413v7.209a3.252 3.252 0 003.252 3.252h47.699A3.252 3.252 0 0065 49.634V19.28a3.252 3.252 0 00-3.252-3.252zm-8.424 0h-8.466l8.32-1.102.146 1.102zM2.177 9.658c-.038-.284.039-.57.214-.795.175-.232.435-.385.722-.423l47.27-6.264a1.1 1.1 0 011.227.932l.428 3.229-49.433 6.555-.428-3.235zm8.62 30.58l-3.41.45a1.084 1.084 0 01-1.218-.931L3.751 21.48l7.046-.931v19.689zm.143-21.893l-7.48.986-.569-4.288 49.433-6.557.325 2.485.241 1.805-24.531 3.252h-14.31a3.252 3.252 0 00-3.109 2.317zm51.892 31.289c0 .599-.486 1.084-1.084 1.084H14.049a1.084 1.084 0 01-1.084-1.084V19.313c0-.01.006-.022.006-.033 0-.598.485-1.084 1.084-1.084h47.693c.599 0 1.084.486 1.084 1.084v30.354z" fill="url(#paint0_linear)"/><path d="M47.596 32.313a5.42 5.42 0 001.143-1.143 5.412 5.412 0 104.336-8.638 5.4 5.4 0 00-4.336 2.201 5.42 5.42 0 10-1.143 7.58zm5.48-7.613a3.252 3.252 0 110 6.504 3.252 3.252 0 010-6.504zm-8.673 0a3.252 3.252 0 110 6.504 3.252 3.252 0 010-6.504z" fill="url(#paint1_linear)"/><path d="M19.47 23.617h-2.168v2.168h2.168v-2.168z" fill="url(#paint2_linear)"/><path d="M34.646 23.617H21.638v2.168h13.008v-2.168z" fill="url(#paint3_linear)"/><path d="M34.647 27.953H17.302v2.168h17.345v-2.168z" fill="url(#paint4_linear)"/><path d="M57.412 37.709H18.386c-.599 0-1.084.485-1.084 1.084v6.504c0 .6.485 1.084 1.084 1.084h39.026c.599 0 1.084-.485 1.084-1.084v-6.504c0-.599-.485-1.084-1.084-1.084zm-1.084 6.504H19.47v-4.336h36.858v4.336z" fill="url(#paint5_linear)"/><defs><linearGradient id="paint0_linear" x1="-12.137" y1="0" x2="73.398" y2="31.912" gradientUnits="userSpaceOnUse"><stop stop-color="#4BD8B5"/><stop offset="1" stop-color="#49D6DF"/></linearGradient><linearGradient id="paint1_linear" x1="35.309" y1="22.531" x2="57.852" y2="34.864" gradientUnits="userSpaceOnUse"><stop stop-color="#4BD8B5"/><stop offset="1" stop-color="#49D6DF"/></linearGradient><linearGradient id="paint2_linear" x1="16.897" y1="23.617" x2="19.873" y2="24.521" gradientUnits="userSpaceOnUse"><stop stop-color="#4BD8B5"/><stop offset="1" stop-color="#49D6DF"/></linearGradient><linearGradient id="paint3_linear" x1="19.209" y1="23.617" x2="23.726" y2="31.844" gradientUnits="userSpaceOnUse"><stop stop-color="#4BD8B5"/><stop offset="1" stop-color="#49D6DF"/></linearGradient><linearGradient id="paint4_linear" x1="14.063" y1="27.953" x2="17.833" y2="37.108" gradientUnits="userSpaceOnUse"><stop stop-color="#4BD8B5"/><stop offset="1" stop-color="#49D6DF"/></linearGradient><linearGradient id="paint5_linear" x1="9.61" y1="37.709" x2="29.666" y2="66.628" gradientUnits="userSpaceOnUse"><stop stop-color="#4BD8B5"/><stop offset="1" stop-color="#49D6DF"/></linearGradient></defs></svg>