<svg width="60" height="60" fill="none" xmlns="http://www.w3.org/2000/svg"><path d="M8.203 38.203a1.172 1.172 0 10.001 2.345 1.172 1.172 0 000-2.345z" fill="url(#paint0_linear)"/><path d="M57.656 54.143V10.544A5.881 5.881 0 0060 5.86C60 2.63 57.371 0 54.14 0a5.866 5.866 0 00-5.859 5.86c0 .952.237 1.875.664 2.697C43.144 5.96 36.67 4.6 30 4.6c-6.669 0-13.144 1.36-18.945 3.956a5.85 5.85 0 00.664-2.698A5.867 5.867 0 005.859 0 5.866 5.866 0 000 5.86a5.88 5.88 0 002.344 4.684v43.6A5.828 5.828 0 000 58.827c0 .647.525 1.16 1.172 1.16h9.376c.505 0 .96-.318 1.115-.803v-.002l.004-.011 11.204-35.024a33.07 33.07 0 0114.257 0l11.205 35.024c0 .004.002.008.003.011v.002c.153.477.603.804 1.117.804h9.375c.647 0 1.172-.514 1.172-1.16 0-1.845-.85-3.562-2.344-4.686zM5.86 2.343A3.52 3.52 0 019.375 5.86a3.53 3.53 0 01-1.758 3.046 3.52 3.52 0 01-3.515 0A3.53 3.53 0 012.344 5.86a3.52 3.52 0 013.515-3.515zM2.543 57.657a3.52 3.52 0 013.316-2.343c1.542 0 2.84.992 3.317 2.343H2.543zm7.929-2.439a5.74 5.74 0 00-1.097-1.074v-10.08a1.172 1.172 0 10-2.344 0v9.025a5.864 5.864 0 00-2.343 0V11.6a5.864 5.864 0 002.343 0v23.087a1.172 1.172 0 102.344 0V30.83c3.106-2.664 6.8-4.7 10.805-5.96l-9.708 30.348zm40.153-1.074c-.437.329-.78.67-1.097 1.074l-9.708-30.35c4.005 1.262 7.7 3.297 10.806 5.961v23.314zm0-34.755a39.731 39.731 0 00-3.02-1.572 1.172 1.172 0 10-.991 2.124 37.507 37.507 0 014.01 2.181v5.7c-12.006-9.079-29.289-9.043-41.249 0v-5.7a37.507 37.507 0 014.011-2.181 1.172 1.172 0 00-.991-2.124 39.748 39.748 0 00-3.02 1.572v-7.396c12.428-6.68 28.822-6.68 41.25 0v7.396zm3.516-17.044a3.52 3.52 0 013.515 3.515A3.53 3.53 0 0155.9 8.905a3.52 3.52 0 01-3.515 0 3.53 3.53 0 01-1.759-3.046 3.52 3.52 0 013.516-3.515zm1.172 9.256v41.488a5.863 5.863 0 00-2.344 0V11.6a5.863 5.863 0 002.343 0zm-4.489 46.056a3.52 3.52 0 016.633 0h-6.633z" fill="url(#paint1_linear)"/><path d="M22.969 16.406H21.11l2.687-2.687a1.172 1.172 0 00-.828-2H18.28a1.172 1.172 0 100 2.344h1.859l-2.687 2.687a1.172 1.172 0 00.828 2h4.688a1.172 1.172 0 100-2.344z" fill="url(#paint2_linear)"/><path d="M26.484 15.234A3.52 3.52 0 0030 18.75a3.52 3.52 0 003.516-3.516A3.52 3.52 0 0030 11.72a3.52 3.52 0 00-3.516 3.515zM30 14.063c.646 0 1.172.525 1.172 1.171s-.526 1.172-1.172 1.172a1.173 1.173 0 01-1.172-1.172c0-.646.526-1.171 1.172-1.171z" fill="url(#paint3_linear)"/><path d="M39.375 18.75a3.52 3.52 0 003.516-3.516 3.52 3.52 0 00-3.516-3.515 3.52 3.52 0 00-3.516 3.515 3.52 3.52 0 003.516 3.516zm0-4.688c.646 0 1.172.526 1.172 1.172a1.173 1.173 0 01-2.344 0c0-.646.526-1.171 1.172-1.171z" fill="url(#paint4_linear)"/><path d="M30 28.828c-.647 0-1.172.525-1.172 1.172v4.688a1.172 1.172 0 002.344 0V30c0-.647-.525-1.172-1.172-1.172z" fill="url(#paint5_linear)"/><path d="M30 40.547c-.647 0-1.172.525-1.172 1.172v4.687a1.172 1.172 0 002.344 0V41.72c0-.648-.525-1.172-1.172-1.172z" fill="url(#paint6_linear)"/><path d="M30 52.969c-.647 0-1.172.524-1.172 1.172v4.687a1.172 1.172 0 002.344 0v-4.687c0-.648-.525-1.172-1.172-1.172z" fill="url(#paint7_linear)"/><defs><linearGradient id="paint0_linear" x1="6.594" y1="38.203" x2="9.811" y2="39.18" gradientUnits="userSpaceOnUse"><stop stop-color="#4BD8B5"/><stop offset="1" stop-color="#49D6DF"/></linearGradient><linearGradient id="paint1_linear" x1="-11.203" y1="0" x2="71.151" y2="25.004" gradientUnits="userSpaceOnUse"><stop stop-color="#4BD8B5"/><stop offset="1" stop-color="#49D6DF"/></linearGradient><linearGradient id="paint2_linear" x1="15.796" y1="11.719" x2="25.448" y2="14.649" gradientUnits="userSpaceOnUse"><stop stop-color="#4BD8B5"/><stop offset="1" stop-color="#49D6DF"/></linearGradient><linearGradient id="paint3_linear" x1="25.172" y1="11.719" x2="34.823" y2="14.648" gradientUnits="userSpaceOnUse"><stop stop-color="#4BD8B5"/><stop offset="1" stop-color="#49D6DF"/></linearGradient><linearGradient id="paint4_linear" x1="34.547" y1="11.719" x2="44.198" y2="14.648" gradientUnits="userSpaceOnUse"><stop stop-color="#4BD8B5"/><stop offset="1" stop-color="#49D6DF"/></linearGradient><linearGradient id="paint5_linear" x1="28.39" y1="28.828" x2="31.868" y2="29.18" gradientUnits="userSpaceOnUse"><stop stop-color="#4BD8B5"/><stop offset="1" stop-color="#49D6DF"/></linearGradient><linearGradient id="paint6_linear" x1="28.39" y1="40.547" x2="31.868" y2="40.899" gradientUnits="userSpaceOnUse"><stop stop-color="#4BD8B5"/><stop offset="1" stop-color="#49D6DF"/></linearGradient><linearGradient id="paint7_linear" x1="28.39" y1="52.969" x2="31.868" y2="53.321" gradientUnits="userSpaceOnUse"><stop stop-color="#4BD8B5"/><stop offset="1" stop-color="#49D6DF"/></linearGradient></defs></svg>