<svg width="80" height="80" fill="none" xmlns="http://www.w3.org/2000/svg"><g clip-path="url(#clip0)"><path d="M75.33 25.795l4.61-13.836a1.172 1.172 0 00-1.112-1.542h-15.56v-4.51c0-.648-.524-1.173-1.171-1.173H47.159a1.172 1.172 0 000 2.344h13.766v26.067H36.437V7.078h5.254a1.172 1.172 0 000-2.344h-5.254V2.75A2.753 2.753 0 0033.687 0H30.53a2.753 2.753 0 00-2.75 2.75v35.92h-3.027a7.53 7.53 0 00-4.509 1.51l-1.281.968a1.172 1.172 0 101.412 1.87l1.281-.967a5.172 5.172 0 013.097-1.037h3.027v3.97h-2.617a1.172 1.172 0 000 2.344h16.34c1.098 0 2.021.857 2.059 1.91a1.97 1.97 0 01-.555 1.452 1.97 1.97 0 01-1.429.607H28.951a1.172 1.172 0 000 2.344H44.66c1.099 0 2.023.857 2.06 1.91a1.974 1.974 0 01-.556 1.453 1.97 1.97 0 01-1.429.607H28.951a1.172 1.172 0 000 2.344h12.627c.544 0 1.051.215 1.429.607.377.39.574.906.555 1.451-.038 1.054-.961 1.912-2.059 1.912H28.951a1.172 1.172 0 000 2.343h9.471a1.97 1.97 0 011.429.608c.377.39.574.906.555 1.451-.038 1.053-.962 1.91-2.061 1.91l-30.95.013V48.748h2.88a7.53 7.53 0 004.51-1.511l1.226-.927a1.172 1.172 0 00-1.413-1.87l-1.227.927a5.164 5.164 0 01-3.096 1.038H1.172c-.647 0-1.172.524-1.172 1.171v23.847c0 .647.525 1.171 1.172 1.171l26.607-.008v4.664A2.753 2.753 0 0030.53 80h3.158a2.753 2.753 0 002.75-2.75v-4.668h1.908c2.346 0 4.32-1.872 4.403-4.171a4.304 4.304 0 00-.51-2.204c2.01-.342 3.593-2.055 3.666-4.11a4.303 4.303 0 00-.503-2.193 4.29 4.29 0 002.448-1.271 4.3 4.3 0 001.213-3.164c-.075-2.093-1.63-3.78-3.665-4.113.358-.666.535-1.42.507-2.2-.083-2.34-2.016-4.172-4.4-4.172h-5.067V35.49h8.074V40c.012.553.423 1.17 1.175 1.172h19.256a1.172 1.172 0 000-2.344H52.65l9.83-3.403c.418-.145.815-.586.789-1.146V12.76h13.933l-4.22 12.664c-.08.24-.08.5 0 .74l4.22 12.663h-6.791a1.172 1.172 0 000 2.344h8.417a1.172 1.172 0 001.112-1.542l-4.61-13.835zM2.343 48.748h2.708v21.503H2.344V48.748zm31.75 28.502a.407.407 0 01-.407.406H30.53a.407.407 0 01-.407-.406v-4.666l3.97-.001v4.667zm-3.97-32.266V2.75c0-.224.182-.406.406-.406h3.157c.224 0 .406.182.406.406v42.234h-3.97zM55.13 35.49l-8.276 2.865V35.49h8.276z" fill="url(#paint0_linear)"/></g><defs><linearGradient id="paint0_linear" x1="-14.938" y1="0" x2="94.871" y2="33.333" gradientUnits="userSpaceOnUse"><stop stop-color="#4BD8B5"/><stop offset="1" stop-color="#49D6DF"/></linearGradient><clipPath id="clip0"><path fill="#fff" d="M0 0h80v80H0z"/></clipPath></defs></svg>