<svg width="80" height="80" fill="none" xmlns="http://www.w3.org/2000/svg"><path d="M62.94 16.563c0-5.437-3.557-14.063-13.104-14.063-3.922 0-7.222 1.85-9.836 5.505C37.386 4.349 34.087 2.5 30.164 2.5c-9.547 0-13.104 8.626-13.104 14.063 0 9.373 7.316 15.237 17.31 23.783a820.34 820.34 0 014.606 3.96 1.558 1.558 0 002.048 0 820.34 820.34 0 014.606-3.96C56.094 31.4 62.94 25.738 62.94 16.563zM40 41.058c-1.248-1.078-2.44-2.096-3.599-3.088-10.457-8.941-16.216-13.866-16.216-21.408 0-5.117 3.347-10.938 9.98-10.938 3.46 0 6.23 1.987 8.464 6.076a1.562 1.562 0 002.742 0c2.235-4.089 5.004-6.076 8.465-6.076 6.54 0 9.98 5.735 9.98 10.938 0 7.542-5.76 12.467-16.217 21.408-1.16.992-2.35 2.01-3.599 3.088z" fill="url(#paint0_linear)"/><path d="M11.228 63.768l7.522 3.76v8.41c0 .862.7 1.562 1.563 1.562h16.562c.863 0 1.563-.7 1.563-1.563V55.54a9.248 9.248 0 00-8.342-9.233l-.128-.014c-2.75-.276-7.618-2.156-9.54-4.078l-3.51-3.508a6.21 6.21 0 00-4.418-1.831v-12.5a6.257 6.257 0 00-6.25-6.25A6.257 6.257 0 000 24.375V45.6c0 7.69 4.343 14.725 11.228 18.168zM3.125 24.375A3.129 3.129 0 016.25 21.25a3.129 3.129 0 013.125 3.125v13.338a6.262 6.262 0 00-3.125 5.412c0 1.669.65 3.238 1.831 4.419l8.002 8.003a1.562 1.562 0 102.21-2.21l-8.002-8.003a3.103 3.103 0 01-.916-2.209 3.13 3.13 0 012.084-2.947 3.12 3.12 0 013.25.738l3.51 3.508c3.622 3.623 11.537 4.986 11.553 4.99a6.136 6.136 0 015.54 6.125v18.836H21.875v-7.813c0-.591-.335-1.132-.864-1.397l-8.386-4.192c-5.86-2.931-9.5-8.821-9.5-15.373V24.375z" fill="url(#paint1_linear)"/><path d="M71.719 61.563a1.562 1.562 0 100-3.125 1.562 1.562 0 000 3.124z" fill="url(#paint2_linear)"/><path d="M73.75 18.125a6.257 6.257 0 00-6.25 6.25v12.5c-1.669 0-3.238.65-4.419 1.83l-3.51 3.509c-1.921 1.922-6.79 3.803-9.551 4.08l-.104.01a9.252 9.252 0 00-8.353 9.235v20.398c0 .863.7 1.563 1.562 1.563h16.563c.862 0 1.562-.7 1.562-1.563v-8.409l5.114-2.556a1.563 1.563 0 00-1.397-2.795l-5.978 2.988a1.56 1.56 0 00-.864 1.397v7.813H44.687V55.539a6.139 6.139 0 015.553-6.126l.103-.011c3.39-.34 9.001-2.541 11.438-4.978l3.51-3.508a3.122 3.122 0 013.249-.739h.001v.001a3.13 3.13 0 012.084 2.947c0 .834-.325 1.619-.916 2.21l-8.001 8.002a1.563 1.563 0 002.21 2.21l8.001-8.003a6.21 6.21 0 001.831-4.419c0-2.256-1.22-4.31-3.125-5.412V24.375a3.129 3.129 0 013.125-3.125 3.129 3.129 0 013.125 3.125V45.6a17.23 17.23 0 01-2.086 8.207 1.562 1.562 0 102.745 1.493A20.37 20.37 0 0080 45.6V24.375a6.257 6.257 0 00-6.25-6.25z" fill="url(#paint3_linear)"/><defs><linearGradient id="paint0_linear" x1="8.493" y1="2.5" x2="70.513" y2="22.975" gradientUnits="userSpaceOnUse"><stop stop-color="#4BD8B5"/><stop offset="1" stop-color="#49D6DF"/></linearGradient><linearGradient id="paint1_linear" x1="-7.177" y1="18.125" x2="48.302" y2="29.027" gradientUnits="userSpaceOnUse"><stop stop-color="#4BD8B5"/><stop offset="1" stop-color="#49D6DF"/></linearGradient><linearGradient id="paint2_linear" x1="69.573" y1="58.438" x2="73.862" y2="59.74" gradientUnits="userSpaceOnUse"><stop stop-color="#4BD8B5"/><stop offset="1" stop-color="#49D6DF"/></linearGradient><linearGradient id="paint3_linear" x1="34.386" y1="18.125" x2="89.865" y2="29.027" gradientUnits="userSpaceOnUse"><stop stop-color="#4BD8B5"/><stop offset="1" stop-color="#49D6DF"/></linearGradient></defs></svg>